<?xml version="1.0" encoding="utf-8"?>
<!-- Generator: Adobe Illustrator 27.5.0, SVG Export Plug-In . SVG Version: 6.00 Build 0)  -->
<svg version="1.1" id="Layer_1" xmlns="http://www.w3.org/2000/svg" xmlns:xlink="http://www.w3.org/1999/xlink" x="0px" y="0px"
	 viewBox="0 0 250 250" style="enable-background:new 0 0 250 250;" xml:space="preserve">
<g>
	<g>
		<circle style="fill:#9B8579;" cx="125" cy="125" r="118.75"/>
		<circle style="fill:#9B8579;" cx="125" cy="125" r="118.75"/>
	</g>
	<g>
		<g>
			<defs>
				
					<ellipse id="SVGID_1_" transform="matrix(0.7071 -0.7071 0.7071 0.7071 -51.7585 125.0438)" cx="125.062" cy="125" rx="114.948" ry="114.948"/>
			</defs>
			<clipPath id="SVGID_00000108995536231947920700000018247686978173783229_">
				<use xlink:href="#SVGID_1_"  style="overflow:visible;"/>
			</clipPath>
			<g style="clip-path:url(#SVGID_00000108995536231947920700000018247686978173783229_);">
				<rect x="-22.537" y="-0.67" style="fill:#FFFFFF;" width="295.073" height="249.928"/>
			</g>
			<g style="clip-path:url(#SVGID_00000108995536231947920700000018247686978173783229_);">
				<g>
					
						<rect x="2.222" y="-1.912" transform="matrix(-1.836970e-16 1 -1 -1.836970e-16 248.1649 -1.8349)" style="fill:#FFFFFF;" width="245.555" height="250.153"/>
					
						<rect x="-81.162" y="81.473" transform="matrix(-1.836970e-16 1 -1 -1.836970e-16 164.7805 81.5495)" style="fill:#043166;" width="245.555" height="83.384"/>
					
						<rect x="85.607" y="81.473" transform="matrix(-1.836970e-16 1 -1 -1.836970e-16 331.5493 -85.2194)" style="fill:#B72525;" width="245.555" height="83.384"/>
				</g>
			</g>
		</g>
		<g>
			<g style="opacity:0.5;">
				<path style="fill:#BABCBE;" d="M226.663,133.284c-6.249,5.984-13.329,11.367-20.935,15.514
					c-18.141,9.893-39.091,13.151-59.5,14.075c-18.178,0.823-36.572,0.118-54.599-2.411c-17.829-2.501-36.032-6.879-51.68-16.098
					c-13.517-7.965-25.626-20.131-28.831-35.628c-5.677,40.203,10.147,82.184,44.938,108.242
					c50.843,38.071,122.914,27.72,160.986-23.12c17.394-23.226,24.676-50.886,22.612-77.711
					C236.578,122.646,231.822,128.344,226.663,133.284z"/>
			</g>
		</g>
		<path style="opacity:0.4;fill:#D1D3D4;" d="M116.987,34.032c-3.178-3.961-7.586-7.085-12.77-8.823
			c-5.094-1.695-11.121-1.605-16.432-1.253c-10.144,0.676-18.89,5.542-26.254,12.298c-6.903,6.321-10.841,15.99-11.571,25.21
			c-0.869,11.01,7.74,18.569,17.739,20.544c10.184,2.022,21.785-1.163,31.016-5.361c7.83-3.548,17.284-9.683,21.181-17.653
			C124.228,50.135,122.449,40.846,116.987,34.032z"/>
		<path style="opacity:0.4;fill:#D1D3D4;" d="M58.497,86.015c-0.746-0.935-1.787-1.678-3.021-2.085
			c-1.202-0.408-2.621-0.377-3.879-0.299c-2.387,0.164-4.453,1.31-6.194,2.907c-1.626,1.495-2.558,3.776-2.731,5.951
			c-0.196,2.6,1.83,4.387,4.194,4.856c2.402,0.477,5.137-0.277,7.316-1.273c1.855-0.838,4.084-2.288,5.002-4.158
			C60.209,89.82,59.788,87.632,58.497,86.015z"/>
	</g>
</g>
</svg>
